HIERARCHY
ROOT root
{
  OFFSET 0.000000 0.000000 0.000000
  CHANNELS 6 Xposition Yposition Zposition Zrotation Yrotation Xrotation
  JOINT lhipjoint
  {
    OFFSET 0.000000 0.000000 0.000000
    CHANNELS 3 Zrotation Yrotation Xrotation
    JOINT lfemur
    {
      OFFSET 0.102404 -0.080329 0.066655
      CHANNELS 3 Zrotation Yrotation Xrotation
      JOINT ltibia
      {
        OFFSET 0.121828 -0.334720 0.000000
        CHANNELS 3 Zrotation Yrotation Xrotation
        JOINT lfoot
        {
          OFFSET 0.142104 -0.390427 0.000000
          CHANNELS 3 Zrotation Yrotation Xrotation
          JOINT ltoes
          {
            OFFSET 0.010339 -0.028407 0.110130
            CHANNELS 3 Zrotation Yrotation Xrotation
            End Site
            {
              OFFSET 0.000000 -0.000000 0.057305
            }
          }
        }
      }
    }
  }
  JOINT rhipjoint
  {
    OFFSET 0.000000 0.000000 0.000000
    CHANNELS 3 Zrotation Yrotation Xrotation
    JOINT rfemur
    {
      OFFSET -0.081233 -0.080330 0.066655
      CHANNELS 3 Zrotation Yrotation Xrotation
      JOINT rtibia
      {
        OFFSET -0.127134 -0.349297 0.000000
        CHANNELS 3 Zrotation Yrotation Xrotation
        JOINT rfoot
        {
          OFFSET -0.139133 -0.382266 0.000000
          CHANNELS 3 Zrotation Yrotation Xrotation
          JOINT rtoes
          {
            OFFSET -0.014837 -0.040763 0.099426
            CHANNELS 3 Zrotation Yrotation Xrotation
            End Site
            {
              OFFSET -0.000000 -0.000000 0.053684
            }
          }
        }
      }
    }
  }
  JOINT lowerback
  {
    OFFSET 0.000000 0.000000 0.000000
    CHANNELS 3 Zrotation Yrotation Xrotation
    JOINT upperback
    {
      OFFSET -0.004925 0.109363 -0.016307
      CHANNELS 3 Zrotation Yrotation Xrotation
      JOINT thorax
      {
        OFFSET 0.000675 0.109981 0.003368
        CHANNELS 3 Zrotation Yrotation Xrotation
        JOINT lowerneck
        {
          OFFSET 0.002891 0.112938 0.011517
          CHANNELS 3 Zrotation Yrotation Xrotation
          JOINT upperneck
          {
            OFFSET 0.001559 0.090381 0.019281
            CHANNELS 3 Zrotation Yrotation Xrotation
            JOINT head
            {
              OFFSET -0.002701 0.094100 -0.013586
              CHANNELS 3 Zrotation Yrotation Xrotation
              End Site
              {
                OFFSET -0.001235 0.095160 -0.006750
              }
            }
          }
        }
        JOINT lclavicle
        {
          OFFSET 0.002891 0.112938 0.011517
          CHANNELS 3 Zrotation Yrotation Xrotation
          JOINT lhumerus
          {
            OFFSET 0.146536 0.100864 -0.016287
            CHANNELS 3 Zrotation Yrotation Xrotation
            JOINT lradius
            {
              OFFSET 0.292299 -0.000000 0.000000
              CHANNELS 3 Zrotation Yrotation Xrotation
              JOINT lwrist
              {
                OFFSET 0.192136 -0.000000 -0.000000
                CHANNELS 3 Zrotation Yrotation Xrotation
                End Site
                {
                  OFFSET 0.096068 -0.000000 -0.000000
                }
              }
            }
          }
        }
        JOINT rclavicle
        {
          OFFSET 0.002891 0.112938 0.011517
          CHANNELS 3 Zrotation Yrotation Xrotation
          JOINT rhumerus
          {
            OFFSET -0.162418 0.087763 -0.041252
            CHANNELS 3 Zrotation Yrotation Xrotation
            JOINT rradius
            {
              OFFSET -0.306127 -0.000000 -0.000000
              CHANNELS 3 Zrotation Yrotation Xrotation
              JOINT rwrist
              {
                OFFSET -0.193077 -0.000000 -0.000000
                CHANNELS 3 Zrotation Yrotation Xrotation
                End Site
                {
                  OFFSET -0.096539 -0.000000 -0.000000
                }
              }
            }
          }
        }
      }
    }
  }
}
MOTION
Frames: 8
Frame Time: 0.04166667
0.00000 0.09327 0.00000 8.11865 -0.00006 -93.78546 0.00000 -0.00000 0.00000 10.18028 13.34125 -31.95604 15.97291 19.60665 78.15098 0.80838 2.53385 16.31919 0.32500 3.66423 10.13390 0.00000 -0.00000 0.00000 19.35605 -24.17300 -22.14293 -6.67026 -15.04782 47.61590 1.48136 -21.04816 -10.39874 -0.40002 -4.06070 11.24751 6.81434 -2.74649 28.50450 4.20032 -0.31455 16.54240 0.89496 1.02032 2.98608 2.35049 -1.01648 -1.76620 -4.18443 2.48860 43.07800 -1.57301 2.22823 15.64210 0.00000 -0.00000 0.00000 -49.76620 -33.61327 45.69991 12.23057 -20.14953 -2.18107 -0.00000 0.00000 -10.56520 0.00000 -0.00000 0.00000 57.54285 37.80032 46.54160 -12.08282 19.92874 -2.13044 0.00000 0.00000 14.03570
0.00000 0.09437 0.00000 7.70502 -1.84801 -91.19920 0.00000 -0.00000 0.00000 12.03986 13.33320 -35.78957 16.48804 19.70168 79.68248 0.86641 2.04149 17.01741 0.25969 3.27859 9.05533 0.00000 -0.00000 0.00000 22.44840 -23.14503 -25.18818 -6.78118 -15.14483 48.04181 1.47546 -21.00192 -10.30141 -0.39405 -4.03064 11.16289 8.02609 -3.08945 28.82880 4.37985 -0.40415 16.27180 0.43245 1.02936 2.54364 2.50272 -0.87719 -1.48757 -4.28266 2.75315 43.04960 -1.61346 2.35067 15.58090 0.00000 0.00000 0.00000 -51.62340 -34.76776 45.35751 11.91467 -19.67655 -2.07347 -0.00000 0.00000 -8.85908 0.00000 0.00000 0.00000 60.03687 39.72487 47.08414 -12.29943 20.25218 -2.20484 0.00000 0.00000 14.16560
0.00000 0.09491 0.00000 7.75046 -1.08665 -90.36721 0.00000 -0.00000 0.00000 11.15853 13.44930 -36.94167 16.80235 19.75306 80.61363 0.91096 2.07303 17.45669 0.38624 3.99097 11.05128 0.00000 -0.00000 0.00000 21.95873 -22.38019 -26.64823 -7.14063 -15.44918 49.40420 1.53727 -21.32842 -9.27745 -0.43623 -4.23824 11.74789 6.40459 -2.76843 30.47670 4.02037 -0.16084 16.64090 0.89713 1.09183 2.23223 2.35040 -0.84912 -1.60878 -3.77861 2.64103 43.19140 -1.38389 2.32488 15.66900 -0.00000 0.00000 0.00000 -51.70207 -35.64753 48.48309 12.62282 -20.73207 -2.31806 -0.00000 0.00000 -11.41600 -0.00000 0.00000 0.00000 61.18642 41.37775 47.79381 -13.01677 21.31178 -2.45938 0.00000 0.00000 13.22200
0.00000 0.09567 0.00000 7.63691 -1.13797 -91.18572 0.00000 -0.00000 0.00000 11.54809 13.25162 -36.25512 17.01061 19.78438 81.22937 0.84375 1.03152 17.04028 0.14910 2.48828 6.85714 0.00000 -0.00000 0.00000 21.56263 -22.69473 -26.29045 -7.44306 -15.69392 50.53080 1.44657 -20.70426 -7.97179 -0.18203 -2.74805 7.57808 5.32897 -2.83734 34.67850 3.86137 0.01642 16.80680 1.25839 1.18400 0.88666 3.39882 -1.09384 -0.54847 -5.71687 2.70490 41.82010 -2.40300 2.22934 14.74340 0.00000 -0.00000 0.00000 -52.03776 -35.87358 49.61873 13.29563 -21.71884 -2.56165 -0.00000 0.00000 -12.28120 0.00000 -0.00000 0.00000 61.77006 42.26203 49.23527 -14.08353 22.85400 -2.86047 0.00000 0.00000 11.53990
0.00000 0.09661 0.00000 6.74477 -1.96571 -90.44075 0.00000 -0.00000 0.00000 12.56127 12.32375 -37.85965 17.42315 19.84005 82.44647 0.83300 0.87236 16.97480 0.26224 3.29447 9.09967 0.00000 -0.00000 0.00000 22.60580 -22.55981 -27.50572 -7.65786 -15.86175 51.32076 1.37147 -20.19169 -7.93846 -0.21407 -2.97868 8.21941 6.04501 -3.17283 36.68080 3.63307 0.12451 16.85140 0.63327 1.34411 0.29064 2.80751 -1.13251 -2.02188 -3.98504 2.18014 43.29940 -1.63017 2.12431 15.80410 0.00000 0.00000 0.00000 -51.25997 -36.50154 51.64051 14.12866 -22.91833 -2.87802 -0.00000 0.00000 -13.96110 0.00000 0.00000 0.00000 61.84488 42.50001 48.73885 -15.36754 24.65562 -3.37778 0.00000 0.00000 10.38220
0.00000 0.09845 0.00000 5.46866 -2.59378 -88.64315 0.00000 -0.00000 0.00000 12.86842 10.67600 -40.50230 17.67613 19.87003 83.19130 0.82241 0.40108 17.00938 0.29505 3.49283 9.65401 0.00000 -0.00000 0.00000 23.92881 -22.01402 -30.05463 -7.90865 -16.05165 52.23298 1.41451 -20.52133 -6.53429 -0.25915 -3.27515 9.04574 6.62516 -3.52997 37.10000 3.57980 -0.03261 16.95670 0.33774 1.33072 0.28457 3.08531 -1.27109 -2.11972 -3.86319 1.83977 43.16510 -1.67704 2.00735 15.73240 -0.00000 0.00000 0.00000 -50.37579 -36.85774 52.56167 14.73637 -23.77758 -3.11888 -0.00000 0.00000 -15.04550 -0.00000 0.00000 0.00000 60.63366 42.53768 48.79583 -16.95286 26.79559 -4.06607 0.00000 0.00000 8.80290
0.00000 0.09146 0.00000 4.24096 -2.53314 -93.75264 0.00000 -0.00000 0.00000 13.43917 8.25369 -36.08650 17.78696 19.88217 83.51728 0.83514 -0.95419 17.63647 0.16804 2.64089 7.28049 0.00000 -0.00000 0.00000 21.70335 -24.50167 -25.62829 -8.17471 -16.24626 53.18955 1.30243 -19.81774 -5.22314 -0.32665 -3.67339 10.15956 5.87049 -4.45074 47.87820 3.25154 0.27178 16.08650 0.56508 1.66100 -2.24281 2.80979 -1.48495 -2.37452 -3.36115 1.37857 43.35030 -1.47122 1.81407 15.86240 -0.00000 -0.00000 0.00000 -49.24341 -37.04051 54.07709 15.40557 -24.70806 -3.39366 -0.00000 0.00000 -16.88520 -0.00000 -0.00000 0.00000 58.56122 42.07611 48.22794 -18.34245 28.59343 -4.71199 0.00000 0.00000 7.60165
0.00000 0.09486 0.00000 2.35966 -2.40805 -89.13777 0.00000 -0.00000 0.00000 12.45440 6.06278 -42.00802 18.02398 19.90612 84.21381 0.84378 -0.75634 17.64626 0.06339 1.62450 4.46901 0.00000 -0.00000 0.00000 23.58869 -23.31982 -31.76983 -8.53641 -16.49996 54.47261 1.21880 -19.38950 -3.68186 -0.09958 -2.03498 5.60234 6.52056 -4.72189 44.09370 3.28457 -0.38590 16.67200 0.30369 1.29881 -1.88922 3.00726 -1.59447 -2.25141 -3.53048 1.31346 43.59140 -1.59346 1.80407 15.96460 -0.00000 0.00000 0.00000 -48.19961 -36.31841 54.65126 15.79481 -25.24164 -3.55801 -0.00000 0.00000 -17.95130 -0.00000 0.00000 0.00000 57.00251 41.54302 48.00340 -19.24638 29.72368 -5.15244 0.00000 0.00000 6.67025
